<svg xmlns="http://www.w3.org/2000/svg" viewBox="0 0 13.48 12.88"><g id="Layer_2" data-name="Layer 2"><g id="Layer_1-2" data-name="Layer 1"><path d="M6.74,4.83H2.53V1.61H6.74ZM13,2.7l-2.13-2a.44.44,0,0,0-.59,0L10,1a.37.37,0,0,0,0,.56l1,1V4a1.44,1.44,0,0,0,1.26,1.39v4a.63.63,0,0,1-1.26,0v-.8A2.27,2.27,0,0,0,8.63,6.44H8.42V1.61A1.64,1.64,0,0,0,6.74,0H2.53A1.65,1.65,0,0,0,.84,1.61v8.86H8.42V7.65h.21a1,1,0,0,1,1.06,1v.7a1.92,1.92,0,0,0,1.69,1.91,1.88,1.88,0,0,0,2.1-1.81V3.84A1.56,1.56,0,0,0,13,2.7ZM8.84,11.27H.42a.41.41,0,0,0-.42.41v.8a.41.41,0,0,0,.42.4H8.84a.41.41,0,0,0,.43-.4v-.8A.42.42,0,0,0,8.84,11.27Z"/></g></g></svg>